<svg xmlns="http://www.w3.org/2000/svg" viewBox="0 0 24 24" fill="#FF5C8D">
  <path d="M10.5 12.5C10.5 11.7 11.2 11 12 11C12.8 11 13.5 11.7 13.5 12.5C13.5 13.3 12.8 14 12 14C11.2 14 10.5 13.3 10.5 12.5Z"/>
  <path d="M12 2C6.5 2 2 6.5 2 12C2 17.5 6.5 22 12 22C17.5 22 22 17.5 22 12C22 6.5 17.5 2 12 2ZM12 20C7.6 20 4 16.4 4 12C4 7.6 7.6 4 12 4C16.4 4 20 7.6 20 12C20 16.4 16.4 20 12 20Z"/>
  <path d="M15.5 8C15.5 8.8 14.8 9.5 14 9.5C13.2 9.5 12.5 8.8 12.5 8C12.5 7.2 13.2 6.5 14 6.5C14.8 6.5 15.5 7.2 15.5 8Z"/>
  <path d="M8.5 17C8.5 16.2 9.2 15.5 10 15.5C10.8 15.5 11.5 16.2 11.5 17C11.5 17.8 10.8 18.5 10 18.5C9.2 18.5 8.5 17.8 8.5 17Z"/>
  <path d="M6.5 10C6.5 9.2 7.2 8.5 8 8.5C8.8 8.5 9.5 9.2 9.5 10C9.5 10.8 8.8 11.5 8 11.5C7.2 11.5 6.5 10.8 6.5 10Z"/>
  <path d="M14.5 15.5C14.5 14.7 15.2 14 16 14C16.8 14 17.5 14.7 17.5 15.5C17.5 16.3 16.8 17 16 17C15.2 17 14.5 16.3 14.5 15.5Z"/>
</svg>